<?xml version="1.0" encoding="UTF-8"?>
<svg width="60px" height="60px" viewBox="0 0 60 60" version="1.1" xmlns="http://www.w3.org/2000/svg" xmlns:xlink="http://www.w3.org/1999/xlink">
    <!-- Generator: Sketch 47.1 (45422) - http://www.bohemiancoding.com/sketch -->
    <title>Group 2</title>
    <desc>Created with Sketch.</desc>
    <defs></defs>
    <g id="Symbols" stroke="none" stroke-width="1" fill="none" fill-rule="evenodd">
        <g id="header_2-copy-4" transform="translate(-55.000000, 0.000000)">
            <g id="header" transform="translate(0.000000, -1.000000)">
                <g id="logo" transform="translate(55.000000, 0.000000)">
                    <g id="Group-10" transform="translate(0.000000, 0.299073)">
                        <g id="Group-2">
                            <polygon id="Fill-7" fill="#DF2C31" points="0 60.703105 60 60.703105 60 0.700927184 0 0.700927184"></polygon>
                            <path d="M39.0994806,41.6625699 C39.2643932,41.5236961 39.3446796,41.3110456 39.3186408,41.0983951 C39.2882621,40.8748951 39.2730728,40.6470553 39.3229806,40.432235 C39.3425097,40.341099 39.3446796,40.2955311 39.4076068,40.2195845 C39.4444951,40.1761864 39.5833689,40.1197689 39.5942184,40.0980699 C39.6614854,39.9678757 39.5942184,39.6315408 39.5942184,39.4861573 C39.8893252,39.7704146 39.960932,40.2174146 40.2365097,40.521201 C40.3211359,40.6036573 40.4231214,40.6687544 40.5381262,40.7056427 C40.4231214,40.8879146 40.2668883,41.2242495 40.0889563,41.3305748 C40.0889563,41.3305748 39.3099612,41.7298369 39.7504515,41.7298369 C40.1931117,41.7298369 41.393068,41.4846379 41.7185534,40.9703709 C41.8726165,40.7251718 42.1156456,40.3541184 42.0961165,40.0828806 C42.0722476,39.7899437 41.8292184,39.3624728 41.7120437,39.0934049 C41.4429757,38.4728126 41.1391893,37.8956184 40.744267,37.346633 C40.6162427,37.1708709 40.2625485,36.8475553 40.2234903,36.6500942 C40.162733,36.363667 40.3710437,35.8689291 40.4231214,35.5629728 C40.4773689,35.2570165 40.3797233,34.9423806 40.5967136,34.7384097 C40.8614417,34.4910408 41.1608883,34.2849 41.436466,34.0570602 C41.9420534,33.6404388 42.3630146,33.1348515 42.7188786,32.5902058 C43.0139854,32.1366961 43.380699,31.670167 43.3633398,31.088633 C43.337301,30.2445408 43.3763592,29.3874291 43.2114466,28.5606961 C42.9445485,27.5148029 42.3890534,26.6099534 42.0288495,25.6183078 C41.7966699,24.9846961 41.301932,24.4617495 40.6509612,24.2816476 C40.4665194,24.2295699 40.2864175,24.1449437 40.1106553,24.0104097 C39.6441262,23.6502058 39.4444951,23.0274437 39.1624078,22.528366 C38.9540971,22.1529728 38.6416311,21.4303951 38.2098204,21.2676524 C37.7715,21.1049097 36.9404272,21.5193612 36.5281456,21.6755942 C35.4214951,22.0922155 34.3322039,22.5001573 33.1539466,22.684599 C32.518165,22.7844146 31.9040825,22.8061136 31.2596214,22.7670553 C30.7279951,22.7323369 29.9533398,22.6976184 29.4998301,22.3808126 C29.2416117,22.2007107 29.1526456,21.7840893 28.853199,21.6365359 C28.4756359,21.4477544 28.3150631,21.7623903 28.3085534,22.0878757 C28.2977039,22.7909243 28.7338544,23.3247204 29.2242524,23.7760602 C28.9226359,23.8802155 28.9725437,24.6331718 29.0376408,24.8805408 C29.1309466,25.2277252 29.5258689,25.5033029 29.8122961,25.6855748 C30.1616505,25.9069049 30.5544029,26.0587981 30.9276262,26.2367301 C31.0903689,26.3126767 31.2357524,26.3994728 31.3811359,26.5014583 C31.5460485,26.6142932 31.7326602,26.8486427 31.9040825,26.9332689 C32.1709806,27.065633 32.7394951,27.0070456 33.0020534,26.8811913 C33.3123495,26.7336379 33.4750922,26.507968 33.5271699,26.1824825 C33.6682136,25.3015019 34.4775874,25.0367738 35.2327136,24.8284631 C35.6558447,24.7112883 36.0529369,24.5420359 36.4587087,24.3944825 C36.9078786,24.2360796 37.146568,23.9930505 37.5176214,23.7087932 C37.6000777,24.5008078 37.615267,25.3275408 37.7606505,26.1108757 C37.8105583,26.3994728 38.0145291,26.5882544 38.1403835,26.8508126 C38.2922767,27.1762981 38.1859515,27.3976282 38.1881214,27.7317932 C38.1924612,28.2373806 38.8412621,28.9599583 38.396432,29.3874291 C38.2901068,29.4894146 38.1816117,29.4742252 38.0709466,29.5480019 C37.9516019,29.6326282 37.9016942,29.7866913 37.8300874,29.9125456 C37.6564951,30.2271816 37.4460146,30.5005893 37.2377039,30.7913563 C36.7950437,31.401099 36.207,31.915366 35.9270825,32.631434 C35.4583835,32.0303709 34.8508107,31.9262155 34.1108738,31.9913126 C33.702932,32.028201 33.4230146,32.1432058 33.0693204,32.3319874 C32.765534,32.4925602 32.3554223,32.742099 32.1905097,33.0654146 C31.9084223,33.6274194 32.3771214,34.4172641 32.7004369,34.8642641 C32.8631796,35.089934 33.0411117,35.3047544 33.234233,35.5043854 C33.414335,35.6888272 34.2106893,36.2833806 34.6511796,36.3940456 C34.8117524,36.4331039 34.9462864,36.3897058 35.0895,36.3354583 C35.4583835,36.1965845 35.6515049,35.827701 35.9270825,35.5521233 C36.0854854,35.6584485 36.1419029,36.0186524 36.252568,36.185735 C36.408801,36.4157447 36.6127718,36.5958466 36.8015534,36.7933078 C36.988165,36.9842592 37.1856262,37.1773806 37.2876117,37.4269194 C37.3375194,37.5506039 37.3223301,37.6677786 37.3548786,37.7849534 C37.3961068,37.9151476 37.480733,38.0041136 37.5328107,38.1364777 C37.7215922,38.6051767 37.4460146,39.2409583 37.749801,39.6337107 C37.9168835,39.8528709 37.9971699,39.9440068 38.0015097,40.2543029 C38.0080194,40.5233709 37.9754709,40.7164922 38.2098204,40.9117835 C38.0709466,41.0463175 37.9299029,41.3001961 37.7020631,41.2784971 C37.5284709,41.6473806 37.0359029,41.3891621 36.7473058,41.7168175 C36.5672039,41.8860699 37.346199,41.9121087 38.5700243,41.8708806 C38.7631456,41.8643709 38.9475874,41.7927641 39.0951408,41.6669097 L39.0994806,41.6625699 Z M27.6575825,36.7477398 C27.9722184,37.1470019 28.1523204,37.6677786 28.4495971,38.0800602 C28.6036602,38.2948806 28.6145097,38.5878175 28.4387476,38.7852786 C28.2998738,38.9458515 28.1523204,39.091235 27.9787282,39.2387883 C27.7639078,39.4210602 27.2518107,39.7465456 27.7009806,39.9700456 C27.8290049,40.0308029 28.1176019,40.0416524 28.249966,40.0134437 C28.4105388,39.9787252 28.5277136,39.8875893 28.7056456,39.8311718 C28.9139563,39.7639049 29.4824709,39.7031476 29.4325631,39.3689825 L29.4542621,39.3689825 L29.4542621,39.2105796 C29.6625728,38.6898029 29.7884272,38.2927107 29.6104951,37.8261816 C29.5128495,37.5744728 29.4260534,37.3205942 29.3609563,37.055866 C29.3414272,36.9755796 29.3435971,36.7368903 29.3153883,36.6804728 C29.2524612,36.5502786 29.1092476,36.452633 29.0376408,36.3115893 C28.7794223,35.7756233 28.8315,35.1832398 28.3736505,34.7470893 C27.9396699,34.3369777 27.4644612,33.9702641 27.0152913,33.5775117 C26.7917913,33.3843903 26.5639515,33.1305117 26.6876359,32.8158757 C26.8091505,32.5142592 27.1259563,32.4469922 27.3103981,32.2408515 C27.6141845,32.3016087 27.7183398,31.9652738 27.8051359,31.7439437 C27.9114612,31.4770456 28.0459951,31.2926039 28.3736505,31.2969437 C28.3953495,30.9454194 28.1892087,30.7848466 28.004767,30.5201184 C27.6836214,30.0557592 28.0025971,30.0731184 28.2673252,29.7432932 C28.3866699,29.6000796 28.3671408,29.6174388 28.3367621,29.3961087 C28.3128932,29.2311961 28.2933641,29.0619437 28.2694951,28.8970311 C28.2174175,28.5281476 28.1588301,28.161434 28.1045825,27.7947204 C28.0112767,27.1437495 27.8941019,26.5101379 27.7530583,25.8678466 C27.6228641,25.2798029 27.1042573,24.8545019 26.8438689,24.2881573 C26.5531019,23.6567155 26.3838495,22.9710262 26.0019466,22.3829825 C25.8435437,22.1377835 25.6634417,21.9403223 25.5202282,21.6821039 C25.3357864,21.3479388 25.1708738,20.9899049 24.9603932,20.6709291 C24.7065146,20.2825165 24.1662087,19.7205117 23.6476019,19.8658951 C23.3698544,19.9440117 23.0834272,20.1436427 22.8273786,20.271667 C22.3760388,20.495167 21.924699,20.7208369 21.4733592,20.9443369 C20.8440874,21.2568029 20.1084903,21.8231476 19.3837427,21.7971087 C19.2383592,21.7927689 19.0495777,21.8079583 18.908534,21.7623903 C18.752301,21.7124825 18.706733,21.5519097 18.6004078,21.5215311 C18.2684126,21.4195456 18.2575631,22.103065 17.9342476,22.0054194 L17.9342476,22.0271184 L17.7715049,22.0271184 L17.7715049,22.0509874 C17.2811068,22.0509874 16.7364612,22.0292883 16.2721019,21.8947544 C15.7838738,21.7537107 15.4562184,21.3392592 15.0135583,21.1135893 C14.4472136,20.8228223 14.0197427,21.1266087 14.0826699,21.7341816 C14.1369175,22.2961864 14.5101408,22.6629 14.8790243,23.0621621 C15.2283786,23.4418951 15.5929223,23.802099 15.9162379,24.205701 C16.3024806,24.6852495 16.6713641,24.4834485 17.1964806,24.6049631 C17.3028058,24.6266621 17.3722427,24.6722301 17.4460194,24.7481767 C17.545835,24.8479922 17.5414951,25.0280942 17.6261214,25.1127204 C17.7975437,25.2841427 18.1100097,25.1365893 18.2662427,25.0194146 C18.7002233,24.6939291 18.8369272,24.1991913 19.3056262,23.8823854 C19.7873447,23.5547301 20.3016117,23.446235 20.8484272,23.3095311 C21.2064612,23.220565 22.2545243,23.1164097 22.4259466,22.7648854 C22.6451068,22.7692252 22.818699,22.5847835 23.0009709,22.4871379 C23.131165,23.0903709 23.2201311,23.7153029 23.3915534,24.3055165 C23.5391068,24.8197835 23.623733,25.6682155 23.5998641,26.2020117 C23.5629757,27.1893175 23.8776117,28.1353951 24.7542524,28.6974 C24.6804757,28.7690068 24.6349078,28.8275942 24.5915097,28.899201 C24.5459417,28.9794874 24.6218883,29.0163757 24.5220728,29.0662835 C24.5264126,29.4069583 23.5282573,29.1704388 23.9448786,29.7563126 L23.9231796,29.7563126 C23.936199,30.0449097 23.8841214,30.3248272 23.6324126,30.4940796 C23.513068,30.5721961 23.311267,30.5700262 23.2092816,30.6524825 C23.1029563,30.7414485 23.0226699,31.0170262 22.9619126,31.134201 C22.8013398,31.446667 22.7058641,31.7461136 22.6017087,32.0802786 C22.5366117,32.2907592 22.5626505,32.3146282 22.3782087,32.386235 C22.2545243,32.4339728 22.2870728,32.3081184 22.1069709,32.1735845 C21.7033689,31.6311087 21.3822233,31.4575165 20.9656019,31.424968 C20.3363301,31.3750602 19.6376214,31.6788466 19.2188301,32.1518854 C18.8564563,32.5619971 18.5548398,33.3583515 18.8456068,33.8726184 C19.0408981,34.2154631 19.3490243,34.6277447 19.6636602,34.8490748 C19.7678155,34.9250214 19.8915,34.9705893 20.0173544,34.9944583 C20.2430243,35.0356864 20.2820825,35.0356864 20.4621845,35.157201 C21.1912718,35.6497689 21.9225291,35.4653272 22.7709612,35.3915505 C22.7709612,36.3332883 22.7015243,37.2620068 22.6364272,38.1994049 C22.6103883,38.5596087 22.5865194,38.9176427 22.5583107,39.2756767 C22.5474612,39.447099 22.5756699,39.6901282 22.5170825,39.8550408 C22.3803786,40.2499631 21.9659272,40.5255408 21.6187427,40.7056427 C21.3301456,40.8531961 20.4469951,40.9616913 20.3862379,41.2676476 C20.2690631,41.8513515 21.0784369,41.7667252 21.4060922,41.6321913 C21.6295922,41.5388854 21.7163883,41.347934 21.8943204,41.2177398 C22.0657427,41.0918854 22.3608495,41.078866 22.5604806,40.9790505 C22.9597427,40.7750796 23.2873981,40.4561039 23.5065583,40.0676913 C23.7626068,39.6206913 23.8776117,39.1194437 24.027335,38.620366 C24.1965874,38.0496816 24.3853689,37.548434 24.3853689,36.9538806 L24.407068,36.9538806 L24.407068,35.8060019 L24.428767,35.8060019 C24.3441408,34.8512447 25.2858786,34.6234049 26.0301553,34.9836087 C26.3968689,35.1593709 26.7006553,35.4436282 26.9567039,35.7560942 C27.2019029,36.0577107 27.3581359,36.5025408 27.6575825,36.7477398 L27.6575825,36.7477398 Z" id="Fill-9" fill="#FFFFFF"></path>
                        </g>
                    </g>
                </g>
            </g>
        </g>
    </g>
</svg>